<svg width="24" height="24" viewBox="0 0 24 24" fill="none" xmlns="http://www.w3.org/2000/svg">
<mask id="mask0_265_5227" style="mask-type:alpha" maskUnits="userSpaceOnUse" x="0" y="0" width="24" height="24">
<rect width="24" height="24" fill="#D9D9D9"/>
</mask>
<g mask="url(#mask0_265_5227)">
<path d="M10.0002 21C9.71686 21 9.47936 20.9042 9.2877 20.7125C9.09603 20.5208 9.0002 20.2833 9.0002 20V8H5.2002C4.88353 8 4.6252 7.88333 4.4252 7.65C4.2252 7.41667 4.15853 7.14167 4.2252 6.825C4.44186 5.69167 5.00436 4.77083 5.9127 4.0625C6.82103 3.35417 7.8502 3 9.0002 3H14.0002C14.2835 3 14.521 3.09583 14.7127 3.2875C14.9044 3.47917 15.0002 3.71667 15.0002 4V6L17.5502 3.45C17.6835 3.31667 17.846 3.20833 18.0377 3.125C18.2294 3.04167 18.4252 3 18.6252 3H19.0002C19.2835 3 19.521 3.09583 19.7127 3.2875C19.9044 3.47917 20.0002 3.71667 20.0002 4V10C20.0002 10.2833 19.9044 10.5208 19.7127 10.7125C19.521 10.9042 19.2835 11 19.0002 11H18.6252C18.4252 11 18.2294 10.9583 18.0377 10.875C17.846 10.7917 17.6835 10.6833 17.5502 10.55L15.0002 8V20C15.0002 20.2833 14.9044 20.5208 14.7127 20.7125C14.521 20.9042 14.2835 21 14.0002 21H10.0002ZM11.0002 19H13.0002V13H11.0002V19ZM11.0002 11H13.0002V5H9.0002C8.56686 5 8.15853 5.0875 7.7752 5.2625C7.39186 5.4375 7.05853 5.68333 6.7752 6H11.0002V11Z" fill="#334155"/>
</g>
</svg>
